/* XPM */
static char *result[] = {
/* columns rows colors chars-per-pixel */
"32 32 7 1 ",
"  c black",
". c gray38",
"X c #B71C1C",
"o c gray62",
"O c gray88",
"+ c white",
"@ c None",
/* pixels */
"@@@@@@@@@@@@@@@@@@@@@@@@@@@@@@@@",
"@@@@@@@@@@@@         @@@@@@@@@@@",
"@@@@@@@@@@@ .. . .... @@@@@@@@@@",
"@@@@@@@@@@ ... . ..... @@   @@@@",
"@@@@@@@@@ .... . ......   @  @@@",
"@@@@@    ..... . . .....  @@  @@",
"@@@@  @ ..o... . . ...... @@@  @",
"@@@  @@ ..oo.. . . ....o. @@@@ @",
"@@  @@@ ...... ... ...o.. @@@  @",
"@@ @@@@ .......... ..o... @@@ @@",
"@@  @@@ ..o....o.. ...... @@@  @",
"@@  @.. .......... ...... ..@  @",
"@@@@...  ....       ....  ..@@@@",
"@@@@.@@@@ ..  OOOOO  .  @@@..@@@",
"@@@..@@@@@   OOoOoOO   @@@@@.@@@",
"@@..@@@@@@ OOOOOOoOOOO @@@@@..@@",
"@@.@@@@@@@ O    O    O @@@@@@.@@",
"@..@@@@@@@ O XX O XX O @@@@@@..@",
"@.@@@@@@@@ O @+ O ++ O @@@@@@@.@",
"@...@@@@   O    O    O   @@@...@",
"@@..@@@  @@ OOOO OOOO @@  @@..@@",
"@@@@@@  @@@@ OO O OO @@@@  @@@@@",
"@@@@@@ @@@@@@ O   O @@@@@@  @@@@",
"@@@@@  @@@@@@@ OOO @@@@@@@@ @@@@",
"@@@@@ @@@@@@@@@   @@@@@@@  @@@@@",
"@@@@  @@@@@@@@@@@@@@@@@@  @@@@@@",
"@@@  @@@@@@@@@@@@@@@@@@  @@@@@@@",
"@@@  @@@@@@@@@@@@@@@@@@ @@@@@@@@",
"@@@@@@@@@@@@@@@@@@@@@@  @@@@@@@@",
"@@@@@@@@@@@@@@@@@@@@@@  @@@@@@@@",
"@@@@@@@@@@@@@@@@@@@@@@@@@@@@@@@@",
"@@@@@@@@@@@@@@@@@@@@@@@@@@@@@@@@"
};
