/* XPM */
static char *result[] = {
/* columns rows colors chars-per-pixel */
"32 32 8 1 ",
"  c black",
". c gray26",
"X c gray38",
"o c #B71C1C",
"O c gray62",
"+ c gray88",
"@ c white",
"# c None",
/* pixels */
"################################",
"############         #######  ##",
"#   ####### XX X XXXX ####  # ##",
"  #   #### XXX X XXXXX ##  ##  #",
" ####  ## XXXX X XXXXXX   ####  ",
"######   XXXXX X X XXXXX  ##### ",
"####### XXOXXX X X XXXXXX ####  ",
"####### XXOOXX X X XXXXOX ##### ",
"####### XXXXXX XXX XXXOXX ######",
"#XXX### XXXXXXXXXX XXOXXX ###...",
"#X#XX## XXOXXXXOXX XXXXXX ##..#.",
"XX##XXX XXXXXXXXXX XXXXXX ...##.",
"X####XX  XXXX       XXXX  ..##..",
"X######## XX  +++++  X  ######.#",
"X#########   ++O+O++   #########",
"########## ++++++O++++ #####  ##",
"########## +    +    + ####  # #",
"########## + @@ + @@ + ### ###  ",
"########## + @o + @o + ##  #### ",
"########   +    +    +    ######",
"#######  ## ++++ ++++ ##########",
"######  #### ++ + ++ ###########",
"#####  ###### +   + ############",
"####  ######## +++ #############",
"###  ##########   ##############",
"#   ############################",
"#  #############################",
"################################",
"################################",
"################################",
"################################",
"################################"
};
