/* XPM */
static char *_c42db8a7f0843a7f20320e323b6f6a64slgjTtIwEaPsoKI[] = {
/* columns rows colors chars-per-pixel */
"32 32 4 1 ",
"  c #8C7066",
". c #75964C",
"X c #8F888F",
"o c #A19EA1",
/* pixels */
"ooXooooooooooooooooooooooooooooo",
"ooXXoooooo.ooooooooooooooooooooo",
"oooXXooooooooooooooooooooooooooo",
"ooooXooooooooXoooooooXoo.ooooooo",
"ooXooooXoooooXXoo oooooo.ooXoooo",
"ooXXooooXoooooXoo ooooooooXXoooo",
"oooooooooooooooooooooooooXoooooo",
"oo ooooooooooooooooo  oooXoooooo",
"oooo oo.ooooooo oooo oXooooooooo",
"oooo oooooooooooooo .oXooooooooo",
"ooooooo   ooooooooo oooXoooooooo",
"oooooooooooo.oXooo oooooXooooooo",
"oooooooXXooo.oXoooooooooXo ooooo",
"ooooooooXooo ooooooooooooo ooooo",
"ooooooooXooooooo ooXoooooo ooooo",
"oooooooooooooooo ooooooooooooooo",
"ooooXooooooooooo  ooooo..ooooooo",
"ooooXXoooo  oooooo ooooooooooooo",
"oooooXooooo oooooo ooooooooooooo",
"ooooooooooooooooXXoooo ooooooooo",
"oooooo..ooXo ooooX.ooo ooooXo.oo",
"o  oooo.ooooooooooXoooo oooXo.oo",
"oooooooooooooooooooXooo oooXoooo",
"ooooooooXoooo oooooXoooo ooXoooo",
"oooooooXXooooo oooooooooo oXoooo",
"oooooooXoooooo  oooooooooo oXooo",
"oooooooXoo.oooo oo.o oooooo oooo",
"oooooooooooooooooooo ooooooooooo",
"oo.oooooooooooooooooo oooo.ooooo",
"ooo.ooooooooooooooooo oooo.ooooo",
"oooooooooooooooooooooooooooooooo",
"oooooooooooooooooooooooooooooooo"
};
