/* XPM */
static char *_739f87af8114820a3cb525a51f1bf47yJzPAjK0sRlXllBZ[] = {
/* columns rows colors chars-per-pixel */
"32 32 9 1 ",
"  c None",
". c black",
"X c #E53935",
"o c #9E4C4A",
"O c #E07B7B",
"+ c #B3AAAA",
"@ c gray72",
"# c #ED8280",
"$ c #D4D0D4",
/* pixels */
"                                ",
"                                ",
"                                ",
"                                ",
"                                ",
"          ............          ",
"           .@@$@@@++.           ",
"           .@@$@@@++.           ",
"           .@@$@@@++.           ",
"           .@@$@@@++.           ",
"           .@@$@@@++.           ",
"           .@@$@@@++.           ",
"           .@@$@@@++.           ",
"           .XX#XXXoo.           ",
"           .XX#XXXoo.           ",
"           .XX#XXXoo.           ",
"           .XX#XXXoo.           ",
"           .XX#XXXoo.           ",
"           .XX#XXXoo.           ",
"           .XX#XXXoo.           ",
"           .XX#XXXoo.           ",
"           .XX#XXXoo.           ",
"           .XX#XXXoo.           ",
"           .XXOXXooo.           ",
"           .oXXXoooo.           ",
"            .oooooo.            ",
"             ......             ",
"                                ",
"                                ",
"                                ",
"                                ",
"                                "
};
