/* XPM */
static char *_9db62e5923a4e7797fa4b5cf0f1bc93CyNRJkLAVsFQAB4h[] = {
/* columns rows colors chars-per-pixel */
"32 32 9 1 ",
"  c None",
". c black",
"X c #E53935",
"o c #9E4C4A",
"O c #E07B7B",
"+ c #B3AAAA",
"@ c gray72",
"# c #ED8280",
"$ c #D4D0D4",
/* pixels */
"                                ",
"                                ",
"                                ",
"                                ",
"                                ",
"                                ",
"          ............          ",
"           .@$@@@++@.           ",
"           .@$@@@++@.           ",
"           .@$@@@++@.           ",
"           .@$@@@++@.           ",
"           .@$@@@++@.           ",
"           .@$@@@++@.           ",
"           .@$@@@++@.           ",
"           .X#XXXooX.           ",
"           .X#XXXooX.           ",
"           .X#XXXooX.           ",
"           .X#XXXooX.           ",
"           .X#XXXooX.           ",
"           .X#XXXooX.           ",
"           .X#XXXooX.           ",
"           .X#XXXooX.           ",
"           .X#XXXooX.           ",
"           .X#XXoooX.           ",
"           .XOXooooX.           ",
"           .oXXoooXX.           ",
"            .oooooX.            ",
"             ......             ",
"                                ",
"                                ",
"                                ",
"                                "
};
