/* XPM */
static char *_10089b975174cc4d5df334b3bda0024SDMZP8uuM2k4cdmq[] = {
/* columns rows colors chars-per-pixel */
"32 32 9 1 ",
"  c None",
". c black",
"X c #E53935",
"o c #9E4C4A",
"O c #E07B7B",
"+ c #B3AAAA",
"@ c gray72",
"# c #ED8280",
"$ c #D4D0D4",
/* pixels */
"                                ",
"                                ",
"                                ",
"                                ",
"                                ",
"                                ",
"                                ",
"          ............          ",
"           .$@@@++@@.           ",
"           .$@@@++@@.           ",
"           .$@@@++@@.           ",
"           .$@@@++@@.           ",
"           .$@@@++@@.           ",
"           .$@@@++@@.           ",
"           .$@@@++@@.           ",
"           .#XXXooXX.           ",
"           .#XXXooXX.           ",
"           .#XXXooXX.           ",
"           .#XXXooXX.           ",
"           .#XXXooXX.           ",
"           .#XXXooXX.           ",
"           .#XXXooXX.           ",
"           .#XXXooXX.           ",
"           .#XXXooXX.           ",
"           .#XXoooXX.           ",
"           .OXoooXXX.           ",
"           .XXooXXXo.           ",
"            .ooXXoX.            ",
"             ......             ",
"                                ",
"                                ",
"                                "
};
