/* XPM */
static char *c40841ee65914c84d5b9176c5490a0ebMbtBdPsSs9uEbpZX[] = {
/* columns rows colors chars-per-pixel */
"32 32 9 1 ",
"  c None",
". c #6D4C41",
"X c #CF6800",
"o c #EF5350",
"O c #FF9800",
"+ c #F7C33E",
"@ c #D4B4B4",
"# c #DED2C1",
"$ c white",
/* pixels */
"                                ",
"              .     .           ",
"             .X.   .X.          ",
"            .XXX...XXX.         ",
"            .XXXX......         ",
"           ..XXXXX......        ",
"          ..XXXXX........       ",
"         ..XXXXXX.........      ",
"         .X#X$O.O.$O.O....      ",
"         .X#XO..OXO..O....      ",
"         .##X+.$+X+.$+....      ",
"         .##X++++X++++X#..      ",
"         .X##XXXX@XXXXX##.      ",
"          .X##X.X.X.XX##X.      ",
"       .. ..X##.....X##X..      ",
"      .XX..##X##XoX###X..       ",
"      .XX.X##########X..        ",
"       .X.###########..         ",
"      ....##XXX######.          ",
"      .X#######X#####..         ",
"      .X#######X###X##..        ",
"      .X#######X##X.#X#.        ",
"      .X########XXX.#X#.        ",
"      .X########X.#.X#X.        ",
"      .X#########.#XX#..        ",
"      .X#########.#X#..         ",
"      .XX########.#X#.          ",
"       ..X###XXXX.#X#.          ",
"        ..X#XXXX##.X..          ",
"         ............           ",
"                                ",
"                                "
};
