/* XPM */
static char *d7952a664a054828bed9d12aab497f1cMqSEo7a6lLO9cenU[] = {
/* columns rows colors chars-per-pixel */
"32 32 8 1 ",
"  c None",
". c #6D4C41",
"X c #CF6800",
"o c #FF9800",
"O c #F7C33E",
"+ c #D4B4B4",
"@ c #DED2C1",
"# c white",
/* pixels */
"                                ",
"                                ",
"              .     .           ",
"             .X.   .X.          ",
"            .XXX...XXX.         ",
"            .XXXX......         ",
"           ..XXXXX......        ",
"          ..XXXXX........       ",
"         ..XXXXXX.........      ",
"         .X@XoooO.oooO....      ",
"         .X@Xo#.OXo#.O....      ",
"         .@@XO..OXO..O....      ",
"         .@@XO.O#XO.O#X@..      ",
"         .X@@XXXX+XXXXX@@.      ",
"          .X@@XXX.XXXX@@X.      ",
"       .. ..X@@X...XX@@X..      ",
"      .XX..@@X@@XXX@@@X..       ",
"      .XX.X@@@@@@@@@@X..        ",
"       .X.@@XXX@@@@@@..         ",
"      ....@@@@@X@@@@@.          ",
"      .X@@@@@@@@X@@@@..         ",
"      .X@@@@@@@@X@@X@@..        ",
"      .X@@@@@@@@X@X.@@X.        ",
"      .X@@@@@@@@@XX.@XX.        ",
"      .X@@@@@@@@@.@.@XX.        ",
"      .X@@@@@@@@@.@@XX..        ",
"      .X@@@@@@@@@.@@X..         ",
"      .XX@@@@@@@@.@@X.          ",
"       ..X@@@@XXX.@@X.          ",
"        ..X@@XXXXX.@..          ",
"         ............           ",
"                                "
};
