/* XPM */
static char *d72406befd04464681ff91e15daba93bfivAE4LVRnViJ8VK[] = {
/* columns rows colors chars-per-pixel */
"32 32 9 1 ",
"  c None",
". c #6D4C41",
"X c #CF6800",
"o c #EF5350",
"O c #FF9800",
"+ c #F7C33E",
"@ c #D4B4B4",
"# c #DED2C1",
"$ c white",
/* pixels */
"                                ",
"                                ",
"                                ",
"              .     .           ",
"             .X.   .X.          ",
"            .XXX...XXX.         ",
"            .XXXX......         ",
"           ..XXXXX......        ",
"          ..XXXXX........       ",
"         ..XXXXXX.........      ",
"         .X#XOOO+.OOO+....      ",
"         .X#XO$.+XO$.+....      ",
"         .##X+..+X+..+....      ",
"         .##X+.+$X+.+$X#..      ",
"         .###XXXX@XXXXX##.      ",
"          .X##XXX.XXXX###.      ",
"       .. ..X##.....X##X..      ",
"      .XX..##X##XoX###X..       ",
"      .XX.X###X######X..        ",
"       .X.##XXX#####X..         ",
"      ....#####X#####.          ",
"      .X########X####..         ",
"      .X########X#X###..        ",
"      .X########XX#.##X.        ",
"      .X########X#X.#X#.        ",
"      .X#######XX.#.XX#.        ",
"      .X#########.##X#..        ",
"      .X#########.#X#..         ",
"      .XX########.#XX.          ",
"       ..X###XXX#.#XX.          ",
"        ..X#XXXXX#.X..          ",
"         ............           "
};
