/* XPM */
static char *_dad89ef1f8c40c0ac64af10cc75256bJigYNwI4xKxzEGXk[] = {
/* columns rows colors chars-per-pixel */
"32 32 17 1 ",
"  c None",
". c #3D0808",
"X c #451313",
"o c #6B1A1A",
"O c #115C2F",
"+ c #595859",
"@ c gray38",
"# c #B71C1C",
"$ c #D69B74",
"% c #21E884",
"& c #FF8A80",
"* c #EF9A9A",
"= c #E8DD99",
"- c #C4D7E6",
"; c #C4DCE6",
": c #E0F2F1",
"> c white",
/* pixels */
"                                ",
"                                ",
"           &&&&&&&&&&           ",
"        >&&&&&&o&&&&&&&         ",
"        &&&&&&oo&oooo&&&        ",
"        &&oo&&oooooo&o&&        ",
"        &oooooooooooooo&        ",
"        &&oooooooooooo&&        ",
"       &&ooo=====&&&ooo&*       ",
"       &ooo=====&&&&&ooo&       ",
"       &o@o=#X====#X=o@o*       ",
"        @=@=XX====XX=@=@        ",
"         @@$$======$$@@         ",
"         :@$$======$$@:         ",
"         #o@@@@@@@@@@o#         ",
"         OOOOO---OOOOO          ",
"        OOOOOO.-.OOOOOO         ",
"       OO%OOOO...OOOO%OO        ",
"       O%OOOOO.-.OOOOO%O        ",
"      OOO%OOOO...OOOO%OOO       ",
"      O%OOOOOO.-.OOOOOO%O       ",
"     O%OO%OOOO...OOOO%OO%O      ",
"     OO%OOOOO-----OOOOO%OO      ",
"     OOOOOOOO.....OOOOOOOO      ",
"     +==+ %OO.....OO% +==+      ",
"      +++ OOO.....OOO +++       ",
"          OOO.....OOO           ",
"           .... ....            ",
"           .... ....            ",
"            ;;   ;;             ",
"            ;;   ;;             ",
"            ..   ..             "
};
