/* XPM */
static char *_fb7a342a55b4cbbc01cbbf6a319d15c8mbvuwk646LVj5dC[] = {
/* columns rows colors chars-per-pixel */
"32 32 17 1 ",
"  c None",
". c #3D0808",
"X c #451313",
"o c #6B1A1A",
"O c #115C2F",
"+ c #595859",
"@ c gray38",
"# c #B71C1C",
"$ c #D69B74",
"% c #21E884",
"& c #FF8A80",
"* c #EF9A9A",
"= c #E8DD99",
"- c #C4D7E6",
"; c #C4DCE6",
": c #E0F2F1",
"> c white",
/* pixels */
"                                ",
"           &&&&&&&&&&           ",
"        >&&&&&&o&&&&&&&         ",
"        &&&&&&oo&oooo&&&        ",
"        &&oo&&oooooo&o&&        ",
"        &oooooooooooooo&        ",
"        &&oooooooooooo&&        ",
"       &&ooo======&&ooo&*       ",
"       &ooo======&=&&ooo&       ",
"       &o@o=XX====XX=o@o*       ",
"        @=@=#X====#X=@=@        ",
"         @@$$======$$@@         ",
"         :@$$======$$@:         ",
"         #o@@@@@@@@@@o#         ",
"          OOOO---OOOO           ",
"         OOOOO.-.OOOOO          ",
"        OO%OOO...OOO%OO         ",
"        O%OOOO.-.OOOO%O         ",
"       OOO%OOO...OOO%OOO        ",
"       O%OOOOO.-.OOOOO%O        ",
"      O%OO%OOO...OOO%OO%O       ",
"      OO%OOOO-----OOOO%OO       ",
"      OOOOOOO.....OOOOOOO       ",
"      +==+%OO.....OO%+==+       ",
"       +++OOO.....OOO+++        ",
"          OOO.....OOO           ",
"           .... ....            ",
"           .... ....            ",
"            ;;   ;;             ",
"            ;;   ;;             ",
"            ..   ..             ",
"                                "
};
