/* XPM */
static char *a54947d69fd442fb8bf7fa0811df2ef6MkyefSCjOotIwB3w[] = {
/* columns rows colors chars-per-pixel */
"32 32 17 1 ",
"  c None",
". c #3D0808",
"X c #451313",
"o c #6B1A1A",
"O c #115C2F",
"+ c #595859",
"@ c gray38",
"# c #B71C1C",
"$ c #D69B74",
"% c #21E884",
"& c #FF8A80",
"* c #EF9A9A",
"= c #E8DD99",
"- c #C4D7E6",
"; c #C4DCE6",
": c #E0F2F1",
"> c white",
/* pixels */
"           &&&&&&&&&&           ",
"        >&&&&&&o&&&&&&&         ",
"        &&&&&&oo&oooo&&&        ",
"        &&oo&&oooooo&o&&        ",
"        &oooooooooooooo&        ",
"        &&oooooooooooo&&        ",
"       &&ooo======&&ooo&*       ",
"       &ooo======&=&&ooo&       ",
"       &o@o=XX====XX=o@o*       ",
"        @=@=##====##=@=@        ",
"         @@$$======$$@@         ",
"         :@$$======$$@:         ",
"         #o@@@@@@@@@@o#         ",
"           OOO---OOO            ",
"          OOOO.-.OOOO           ",
"         OO%OO...OO%OO          ",
"         O%OOO.-.OOO%O          ",
"        OOO%OO...OO%OOO         ",
"        O%OOOO.-.OOOO%O         ",
"       O%OO%OO...OO%OO%O        ",
"       OO%OOO-----OOO%OO        ",
"       OOOOOO.....OOOOOO        ",
"       +==O%O.....O%O==+        ",
"        ++OOO.....OOO++         ",
"          OOO.....OOO           ",
"           .... ....            ",
"           .... ....            ",
"            ;;   ;;             ",
"            ;;   ;;             ",
"            ..   ..             ",
"                                ",
"                                "
};
