/* XPM */
static char *result[] = {
/* columns rows colors chars-per-pixel */
"32 32 7 1 ",
"  c black",
". c gray38",
"X c #B71C1C",
"o c gray62",
"O c gray88",
"+ c white",
"@ c None",
/* pixels */
"@@@@@@@@@@@@@@@@@@@@@@@@@@@@@@@@",
"@@@@@@@@@@@@@@@@@@@@@@@@@@@@@@@@",
"@@@@@@@@@@@@..@@@@@@  @@@@@@@@@@",
"@@@@@@@@@@@@...@@@@@  @@@@@@@@@@",
"@@@  @@@@@@@@@..@@@@@  @@@@@@@@@",
"@@@  @@@@@@@@@@...@@@@  @@@@@@@@",
"@@@@  @@@@@@@@@@@.@@@@@ @@@@@@@@",
"@@@@@  @@@@@@@@@@..@@@@  @@@@@@@",
"@@@@@@  @@@@@@@@@..@@@@@ @@@@@@@",
"@@@@@@@   @@@@@@@        @@@@@@@",
"@@@@@@@@@ @@@@@@@ ...... @@@@@@@",
"@@@@@@@@@@ @@@@@ ........ @@@@@@",
"@@@@@@@@@@      ...o..oo.. @@@@@",
"@@@@@@@@@ OOOOO ......o.... @@@@",
"@@@@@@@@ O    O  ........... @@@",
"@@@@@@@ OO X+ OO  .......... @@@",
"@@@@@@ OOO ++ OOO ...        @@@",
"@@@@@ O  O    OoO .o........ @@@",
"@@@@@ O O OOOOOOO ....       @@@",
"@@@@@ O  O    ooO .......... @@@",
"@@@@@@ OOO X+ OOO        ... @@@",
"@@@@@@@ OO ++ OO  .......... @@@",
"@@@@@@@@ O    O  ........... @@@",
"@@@@@@@@@ OOOOO ....o...... @@@@",
"@@@@@@@@@@       ....o.... @@@@@",
"@@@@@@@@@@ @@@@@ .....o.. @@@@@@",
"@@@@@@@@@  @@@@@@ ......  @@@@@@",
"@@@@@@@@  @@@@@@@          @@@@@",
"@@@@@@@  @@@@@@@@..@@@@@@@ @@@@@",
"@@@@@@  @@@@@@@@...@@@@@@  @@@@@",
"@@@@@@ @@@@@@@...@@@@@@@  @@@@@@",
"@@@@   @@@@@@..@@@@@@@@  @@@@@@@"
};
