/* XPM */
static char *result[] = {
/* columns rows colors chars-per-pixel */
"32 32 8 1 ",
"  c black",
". c gray26",
"X c gray38",
"o c #B71C1C",
"O c gray62",
"+ c gray88",
"@ c white",
"# c None",
/* pixels */
"################################",
"################################",
"###############XXXX######  #####",
"###  #############XXX#####  ####",
"###  ###############X###### ####",
"####  #############XX#####  ####",
"#####  ###########XX###### #####",
"######  #########XX######  #####",
"#######  ########XX#####  ######",
"########  #######        #######",
"#########  ###### XXXXXX #######",
"########## ##### XXXXXXXX ######",
"##########      XXXOXXOOXX #####",
"######### +++++ XXXXXXOXXXX ####",
"######## +    +  XXXXXXXXXXX ###",
"####### ++ @@ ++  XXXXXXXXXX ###",
"###### +++ o@ +++ XXX        ###",
"##### +  +    +O+ XOXXXXXXXX ###",
"##### + + +++++++ XXXX       ###",
"##### +  +    OO+ XXXXXXXXXX ###",
"###### +++ @@ +++        XXX ###",
"####### ++ o@ ++  XXXXXXXXXX ###",
"######## +    +  XXXXXXXXXXX ###",
"######### +++++ XXXXOXXXXXX ####",
"##########       XXXXOXXXX #####",
"########## ##### XXXXXOXX ######",
"########## ###### XXXXXX  ######",
"##########  #####          #####",
"###########  ####..#######  ####",
"############# ###..######## ####",
"#############  ###..######## ###",
"############## ####..#####   ###"
};
