/* XPM */
static char *result[] = {
/* columns rows colors chars-per-pixel */
"32 32 7 1 ",
"  c black",
". c gray38",
"X c #B71C1C",
"o c gray62",
"O c gray88",
"+ c white",
"@ c None",
/* pixels */
"@@@@@@@@@@@@@@@@@@@@@@@@@@@@@@@@",
"@@@@@@@@@@@@@@@@@@@@@@@@@@@@@@@@",
"@@@@@@@@@@  @@@@@@..@@@@@@@@@@@@",
"@@@@@@@@@@  @@@@@...@@@@@@@@@@@@",
"@@@@@@@@@  @@@@@..@@@@@@@@@  @@@",
"@@@@@@@@  @@@@...@@@@@@@@@@  @@@",
"@@@@@@@@ @@@@@.@@@@@@@@@@@  @@@@",
"@@@@@@@  @@@@..@@@@@@@@@@  @@@@@",
"@@@@@@@ @@@@@..@@@@@@@@@  @@@@@@",
"@@@@@@@        @@@@@@@   @@@@@@@",
"@@@@@@@ ...... @@@@@@@ @@@@@@@@@",
"@@@@@@ ........ @@@@@ @@@@@@@@@@",
"@@@@@ ..oo..o...      @@@@@@@@@@",
"@@@@ ....o...... OOOOO @@@@@@@@@",
"@@@ ...........  O    O @@@@@@@@",
"@@@ ..........  OO +X OO @@@@@@@",
"@@@        ... OOO ++ OOO @@@@@@",
"@@@ ........o. OoO    O  O @@@@@",
"@@@       .... OOOOOOO O O @@@@@",
"@@@ .......... Ooo    O  O @@@@@",
"@@@ ...        OOO +X OOO @@@@@@",
"@@@ ..........  OO ++ OO @@@@@@@",
"@@@ ...........  O    O @@@@@@@@",
"@@@@ ......o.... OOOOO @@@@@@@@@",
"@@@@@ ....o....       @@@@@@@@@@",
"@@@@@@ ..o..... @@@@@ @@@@@@@@@@",
"@@@@@@  ...... @@@@@@  @@@@@@@@@",
"@@@@@          @@@@@@@  @@@@@@@@",
"@@@@@ @@@@@@@..@@@@@@@@  @@@@@@@",
"@@@@@  @@@@@@...@@@@@@@@  @@@@@@",
"@@@@@@  @@@@@@@...@@@@@@@ @@@@@@",
"@@@@@@@  @@@@@@@@..@@@@@@   @@@@"
};
