/* XPM */
static char *result[] = {
/* columns rows colors chars-per-pixel */
"32 32 8 1 ",
"  c black",
". c gray26",
"X c gray38",
"o c #B71C1C",
"O c gray62",
"+ c gray88",
"@ c white",
"# c None",
/* pixels */
"################################",
"################################",
"################################",
"################################",
"################################",
"#  #############################",
"#   ############################",
"###  ##########   ##############",
"####  ######## +++ #############",
"#####  ###### +   + ############",
"######  #### ++ + ++ ###########",
"#######  ## ++++ ++++ ##########",
"########   +    +    +    ######",
"########## + @o + @o + ##  #### ",
"########## + @@ + @@ + ### ###  ",
"########## +    +    + ####  # #",
"########## ++++++O++++ #####  ##",
"X#########   ++O+O++   #########",
"X######## XX  +++++  X  ######.#",
"X####XX  XXXX       XXXX  ..##..",
"XX##XXX XXXXXXXXXX XXXXXX ...##.",
"#X#XX## XXOXXXXOXX XXXXXX ##..#.",
"#XXX### XXXXXXXXXX XXOXXX ###...",
"####### XXXXXX XXX XXXOXX ######",
"####### XXOOXX X X XXXXOX ##### ",
"####### XXOXXX X X XXXXXX ####  ",
"######   XXXXX X X XXXXX  ##### ",
" ####  ## XXXX X XXXXXX   ####  ",
"  #   #### XXX X XXXXX ##  ##  #",
"#   ####### XX X XXXX ####  # ##",
"############         #######  ##",
"################################"
};
