/* XPM */
static char *_3c68cb2182b467a9d7869bb08dd1d81MBp6J63AQlwTW4lF[] = {
/* columns rows colors chars-per-pixel */
"32 32 7 1 ",
"  c None",
". c black",
"X c gray38",
"o c #B71C1C",
"O c gray62",
"+ c gray88",
"@ c white",
/* pixels */
"                                ",
"                                ",
"        ..                      ",
"        ..                      ",
"        .                  ..   ",
"       ..                  ..   ",
"      ..                  ..    ",
"     ..       ...         .     ",
"    .        .+++.       ..     ",
"    ..      .+...+.      .      ",
"     ..    .++.+.++.    ..      ",
"  XX  ..  .++++.++++.  ..   XX  ",
" XXX   ...+....+....+...    XXX ",
" X       .+.@@.+.@ .+.        X ",
" XX      .+.oo.+.oo.+.       XX ",
"  X      .+....+....+.       X  ",
"  XX     .++++O++++++.      XX  ",
"   X     ...++O+O++...     XX   ",
"   XX   ..X..+++++..XX.    X    ",
"    XX..XXXX.......XXXX..XXX    ",
" .. XX.XXXXXX.XXXXXXXXXX.XX ..  ",
" ..   .XXXXXX.XXOXXXXOXX.   ..  ",
"  .   .XXXOXX.XXXXXXXXXX.    .  ",
" ..   .XXOXXX.XXX.XXXXXX.   ..  ",
" .    .XOXXXX.X.X.XXOOXX.  ..   ",
" ..   .XXXXXX.X.X.XXXOXX. ..    ",
"  ..  ..XXXXX.X.X.XXXXX....     ",
"   .. ...XXXXXX.X.XXXX.         ",
"    ...  .XXXXX.X.XXX.          ",
"          .XXXX.X.XX.           ",
"           .........            ",
"                                "
};
