/* XPM */
static char *_428b4a52378442b9260f72f8d100142JhXdNiaF7Sb4qlF9[] = {
/* columns rows colors chars-per-pixel */
"32 32 7 1 ",
"  c None",
". c black",
"X c gray38",
"o c #B71C1C",
"O c gray62",
"+ c gray88",
"@ c white",
/* pixels */
"                                ",
"                                ",
"                                ",
"                                ",
"                                ",
"  ..                            ",
"  ...                        .. ",
"    ..         ...           .. ",
"     ..       .+++.        ...  ",
"      ..     .+...+.      ..    ",
"       .    .++.+.++.    ..     ",
"       ..  .++++.++++.  ..      ",
"         ..+....+....+...       ",
"          .+.o@.+.o@.+.         ",
"XX        .+.@@.+.@@.+.       XX",
"XX        .+....+....+.      XXX",
" XX       .++++++O++++.     XX  ",
"  XX      ...++O+O++...     X   ",
"   X     .XX..+++++..X..   XX   ",
"   XXXX..XXXX.......XXXX..XX    ",
"     XX.XXXXXXXXXX.XXXXXX.XX    ",
"       .XXOXXXXOXX.XXXXXX.      ",
"..     .XXXXXXXXXX.XXOXXX.      ",
"...    .XXXXXX.XXX.XXXOXX.    ..",
"  ..   .XXOOXX.X.X.XXXXOX.    ..",
"   ... .XXOXXX.X.X.XXXXXX.   .. ",
"     ....XXXXX.X.X.XXXXX..  ..  ",
"         .XXXX.X.XXXXXX... ..   ",
"          .XXX.X.XXXXX.  ...    ",
"           .XX.X.XXXX.          ",
"            .........           ",
"                                "
};
