/* XPM */
static char *_845b5218fd14e56f02f60bef643bbbbsnDReUlnChFgp47L[] = {
/* columns rows colors chars-per-pixel */
"32 32 14 1 ",
"  c None",
". c #54342A",
"X c #2D5C15",
"o c #417D25",
"O c #795548",
"+ c #F50057",
"@ c #C51162",
"# c #965D4A",
"$ c #EC407A",
"% c #348210",
"& c #368C39",
"* c #459421",
"= c #51B324",
"- c #54F00C",
/* pixels */
"                                ",
"                                ",
"              --=%%             ",
"             --==*%X            ",
"            --==**%XX           ",
"          ---==**&%%XX          ",
"         --===**&&&&%XX         ",
"        --====*****&%XXX        ",
"        -===********%XXX        ",
"       --==*&&****@*%XXXX       ",
"      --===&*&***@+@%%XXX       ",
"     ---=*******@+$+@%XXX       ",
"    --====******&@+@%%XXXX      ",
"    -====*%%******@*%**XX       ",
"    -=*****%%*******%XXXX       ",
"      *************%%oooX       ",
"         **********oooXoX       ",
"          ******oo&XXXXX        ",
"            **oooXXXXX          ",
"             OOO..              ",
"              #O.               ",
"              #O.               ",
"              #O.               ",
"              #..               ",
"              #O.               ",
"              #O..              ",
"             ###O.              ",
"             #.OO...            ",
"           #O.OO.OO.            ",
"                                ",
"                                ",
"                                "
};
