/* XPM */
static char *f59cb693290b4b9ee02fd5c51f07c7578kVPd6QphyDEyWqR[] = {
/* columns rows colors chars-per-pixel */
"32 32 14 1 ",
"  c None",
". c #54342A",
"X c #2D5C15",
"o c #417D25",
"O c #795548",
"+ c #F50057",
"@ c #C51162",
"# c #965D4A",
"$ c #348210",
"% c #368C39",
"& c #459421",
"* c #51B324",
"= c #54F00C",
"- c white",
/* pixels */
"                                ",
"                                ",
"                ==*$$           ",
"               ==**&$X          ",
"              ==**&&$XX         ",
"            ===**&&%$$XX        ",
"           ==***&&%%%%$XX       ",
"          ==****&&&&&%$XXX      ",
"          =***&&&&&&&&$XXX      ",
"         ==**&%%&&&&@&$XXXX     ",
"        ==***%&%&&&@+@$$XXX     ",
"       ===*&&&&&&&@+-+@$XXX     ",
"      ==****&&&&&&%@+@$$XXXX    ",
"      =****&$$&&&&&&@&$&&XX     ",
"      =*&&&&&$$&&&&&&&$XXXX     ",
"        &&&&&&&&&&&&&$$oooX     ",
"           &&&&&&&&&&oooXoX     ",
"           &&&&&&&oo%XXXXX      ",
"           &&&&oooXXXXXXX       ",
"           &&&OO...XXX          ",
"             #OO..              ",
"             #OO..              ",
"             #OO..              ",
"             #O...              ",
"            O#OO..              ",
"            ##OO...             ",
"            ###OO....           ",
"          #O##.OO....           ",
"          ##O.OO.OO..           ",
"                                ",
"                                ",
"                                "
};
